HIERARCHY
ROOT hip
{
  OFFSET 342.82 78.4373 -2.36375
  CHANNELS 6 Xposition Yposition Zposition Zrotation Xrotation Yrotation
  JOINT abdomen
  {
    OFFSET 0 20.6881 -0.73152
    CHANNELS 3 Zrotation Xrotation Yrotation
    JOINT chest
    {
      OFFSET 0 11.7043 -0.48768
      CHANNELS 3 Zrotation Xrotation Yrotation
      JOINT neck
      {
        OFFSET 0 22.1894 -2.19456
        CHANNELS 3 Zrotation Xrotation Yrotation
        JOINT head
        {
          OFFSET -0.24384 7.07133 1.2192
          CHANNELS 3 Zrotation Xrotation Yrotation
          JOINT leftEye
          {
            OFFSET 4.14528 8.04674 8.04672
            CHANNELS 3 Zrotation Xrotation Yrotation
            End Site
            {
              OFFSET 1 0 0
            }
          }
          JOINT rightEye
          {
            OFFSET -3.6576 8.04674 8.04672
            CHANNELS 3 Zrotation Xrotation Yrotation
            End Site
            {
              OFFSET 1 0 0
            }
          }
        }
      }
      JOINT rCollar
      {
        OFFSET -2.68224 19.2634 -4.8768
        CHANNELS 3 Zrotation Xrotation Yrotation
        JOINT rShldr
        {
          OFFSET -8.77824 -1.95073 1.46304
          CHANNELS 3 Zrotation Xrotation Yrotation
          JOINT rForeArm
          {
            OFFSET -28.1742 -1.7115 0.48768
            CHANNELS 3 Zrotation Xrotation Yrotation
            JOINT rHand
            {
              OFFSET -22.5879 0.773209 7.07136
              CHANNELS 3 Zrotation Xrotation Yrotation
              JOINT rThumb1
              {
                OFFSET -1.2192 -0.487915 3.41376
                CHANNELS 3 Zrotation Xrotation Yrotation
                JOINT rThumb2
                {
                  OFFSET -3.37035 -0.52449 3.41376
                  CHANNELS 3 Zrotation Xrotation Yrotation
                  End Site
                  {
                    OFFSET -1.78271 -1.18214 1.43049
                  }
                }
              }
              JOINT rIndex1
              {
                OFFSET -7.75947 0.938293 5.60832
                CHANNELS 3 Zrotation Xrotation Yrotation
                JOINT rIndex2
                {
                  OFFSET -2.54057 -0.884171 1.56538
                  CHANNELS 3 Zrotation Xrotation Yrotation
                  End Site
                  {
                    OFFSET -1.62519 -0.234802 1.16502
                  }
                }
              }
              JOINT rMid1
              {
                OFFSET -8.24714 1.18213 3.41376
                CHANNELS 3 Zrotation Xrotation Yrotation
                JOINT rMid2
                {
                  OFFSET -3.10165 -0.590103 1.0647
                  CHANNELS 3 Zrotation Xrotation Yrotation
                  End Site
                  {
                    OFFSET -2.48547 -0.328903 0.83742
                  }
                }
              }
              JOINT rRing1
              {
                OFFSET -8.82822 0.546677 1.51678
                CHANNELS 3 Zrotation Xrotation Yrotation
                JOINT rRing2
                {
                  OFFSET -2.60934 -0.819778 -0.0198488
                  CHANNELS 3 Zrotation Xrotation Yrotation
                  End Site
                  {
                    OFFSET -2.33842 -0.294052 0.168128
                  }
                }
              }
              JOINT rPinky1
              {
                OFFSET -8.27202 -0.0477905 -0.4584
                CHANNELS 3 Zrotation Xrotation Yrotation
                JOINT rPinky2
                {
                  OFFSET -1.82734 -0.647385 -0.700984
                  CHANNELS 3 Zrotation Xrotation Yrotation
                  End Site
                  {
                    OFFSET -1.69225 -0.51767 -0.607171
                  }
                }
              }
            }
          }
        }
      }
      JOINT lCollar
      {
        OFFSET 2.68224 19.2634 -4.8768
        CHANNELS 3 Zrotation Xrotation Yrotation
        JOINT lShldr
        {
          OFFSET 8.77824 -1.95073 1.46304
          CHANNELS 3 Zrotation Xrotation Yrotation
          JOINT lForeArm
          {
            OFFSET 28.1742 -1.7115 0.48768
            CHANNELS 3 Zrotation Xrotation Yrotation
            JOINT lHand
            {
              OFFSET 22.5879 0.773209 7.07136
              CHANNELS 3 Zrotation Xrotation Yrotation
              JOINT lThumb1
              {
                OFFSET 1.2192 -0.487915 3.41376
                CHANNELS 3 Zrotation Xrotation Yrotation
                JOINT lThumb2
                {
                  OFFSET 3.37035 -0.52449 3.41376
                  CHANNELS 3 Zrotation Xrotation Yrotation
                  End Site
                  {
                    OFFSET 1.78271 -1.18214 1.43049
                  }
                }
              }
              JOINT lIndex1
              {
                OFFSET 7.75947 0.938293 5.60832
                CHANNELS 3 Zrotation Xrotation Yrotation
                JOINT lIndex2
                {
                  OFFSET 2.54057 -0.884171 1.56538
                  CHANNELS 3 Zrotation Xrotation Yrotation
                  End Site
                  {
                    OFFSET 1.62519 -0.234802 1.16502
                  }
                }
              }
              JOINT lMid1
              {
                OFFSET 8.24714 1.18213 3.41376
                CHANNELS 3 Zrotation Xrotation Yrotation
                JOINT lMid2
                {
                  OFFSET 3.10165 -0.590103 1.0647
                  CHANNELS 3 Zrotation Xrotation Yrotation
                  End Site
                  {
                    OFFSET 2.48547 -0.328903 0.83742
                  }
                }
              }
              JOINT lRing1
              {
                OFFSET 8.82822 0.546677 1.51678
                CHANNELS 3 Zrotation Xrotation Yrotation
                JOINT lRing2
                {
                  OFFSET 2.60934 -0.819778 -0.0198488
                  CHANNELS 3 Zrotation Xrotation Yrotation
                  End Site
                  {
                    OFFSET 2.33842 -0.294052 0.168128
                  }
                }
              }
              JOINT lPinky1
              {
                OFFSET 8.27202 -0.0477905 -0.4584
                CHANNELS 3 Zrotation Xrotation Yrotation
                JOINT lPinky2
                {
                  OFFSET 1.82734 -0.647385 -0.700984
                  CHANNELS 3 Zrotation Xrotation Yrotation
                  End Site
                  {
                    OFFSET 1.69225 -0.51767 -0.607171
                  }
                }
              }
            }
          }
        }
      }
    }
  }
  JOINT rButtock
  {
    OFFSET -8.77824 4.35084 1.2192
    CHANNELS 3 Zrotation Xrotation Yrotation
    JOINT rThigh
    {
      OFFSET 0 -1.70687 -2.19456
      CHANNELS 3 Zrotation Xrotation Yrotation
      JOINT rShin
      {
        OFFSET 0 -36.8199 0.73152
        CHANNELS 3 Zrotation Xrotation Yrotation
        JOINT rFoot
        {
          OFFSET 0.73152 -45.1104 -5.12064
          CHANNELS 3 Zrotation Xrotation Yrotation
          End Site
          {
            OFFSET -1.1221 -3.69964 12.103
          }
        }
      }
    }
  }
  JOINT lButtock
  {
    OFFSET 8.77824 4.35084 1.2192
    CHANNELS 3 Zrotation Xrotation Yrotation
    JOINT lThigh
    {
      OFFSET 0 -1.70687 -2.19456
      CHANNELS 3 Zrotation Xrotation Yrotation
      JOINT lShin
      {
        OFFSET 0 -36.8199 0.73152
        CHANNELS 3 Zrotation Xrotation Yrotation
        JOINT lFoot
        {
          OFFSET -0.73152 -45.1104 -5.12064
          CHANNELS 3 Zrotation Xrotation Yrotation
          End Site
          {
            OFFSET 1.1221 -3.69964 12.103
          }
        }
      }
    }
  }
}
MOTION
Frames:	4
Frame Time:	0.00833333
-195.117 85.1731 8.08704 -0.389724 -0.00134232 0.00664155 0.512932 -0.00341814 0.0146932 0.141687 -0.00540198 0.0245504 -4.88884e-015 -2.38542e-015 1.86361e-017 -1.47318e-014 -6.36111e-015 1.2424e-017 -0 0 0 -0 0 0 -2.4364e-015 2.07714e-017 1.98785e-016 -4.85584e-014 6.70898e-016 5.96354e-016 -8.8166e-013 2.78696e-013 -1.90833e-014 -1.01285e-011 -1.95728e-013 -6.36111e-015 -2.38844e-011 1.75353e-013 -2.22639e-014 -4.12546e-011 2.95792e-013 -2.78299e-014 -2.38792e-011 1.78111e-013 -3.18055e-014 7.73091 5.47488 0.417314 -2.38846e-011 1.75726e-013 -1.90833e-014 2.90554 0.965183 0.102902 -2.38821e-011 1.75527e-013 -1.35174e-014 10.2786 0.731801 0.0259123 -2.38927e-011 1.75328e-013 0 2.22167 -0.733487 -0.20892 -2.43399e-015 2.07714e-017 -1.98785e-016 -5.40453e-014 6.64686e-016 -9.93923e-016 -8.86729e-013 -2.50667e-013 2.54444e-014 -1.0117e-011 3.33362e-013 -1.90833e-014 -2.38683e-011 1.73465e-013 -9.54166e-015 -4.12116e-011 2.95792e-013 -1.43125e-014 -2.3874e-011 1.76521e-013 6.36111e-015 -7.73091 5.47488 -0.417314 -2.38679e-011 1.73638e-013 -9.54166e-015 -2.90554 0.965183 -0.102902 -2.3876e-011 1.73539e-013 -1.03368e-014 -10.2786 0.731801 -0.0259123 -2.38603e-011 1.75726e-013 -1.90833e-014 -2.22167 -0.733487 0.20892 -2.03217e-016 0 -3.88251e-019 0.859998 -4.41146 -0.0729701 -0.00213117 2.43942 -0.0112526 -0.474432 1.97258 0.0938363 2.03217e-016 0 3.88251e-019 -0.077702 -2.42095 0.0232545 0.00766789 -1.16604 0.0660004 0.46579 3.58744 -0.125218 
-189.062 82.793 3.06739 -13.9472 -16.0659 22.7595 2.08277 3.81104 1.81099 -1.2038 0.228997 0.63097 1.9092 2.07288 0.818536 -2.59964 -11.8323 0.602437 -0 0 0 -0 0 0 -1.25921e-013 -6.84886e-013 -5.48871e-015 17.6959 12.6402 -2.70173 -29.6232 -26.6575 12.5091 0.106814 -7.30477 -0.997446 -2.53725e-010 -2.42454e-010 -3.49329e-010 -4.32774e-010 -4.2235e-010 -6.08223e-010 -2.5372e-010 -2.42453e-010 -3.49342e-010 7.73091 5.47488 0.417314 -2.53725e-010 -2.42455e-010 -3.49328e-010 2.90554 0.965183 0.102902 -2.53721e-010 -2.42455e-010 -3.49323e-010 10.2786 0.731801 0.0259123 -2.53731e-010 -2.42455e-010 -3.49311e-010 2.22167 -0.733487 -0.20892 -1.25928e-013 -6.84886e-013 -5.82959e-015 -24.1536 6.86635 13.7828 24.5862 -22.418 -14.5393 -0.023722 -3.42247 0.477918 6.0742e-011 4.69524e-010 1.50383e-010 1.01655e-010 8.11122e-010 2.62152e-010 6.07343e-011 4.69529e-010 1.50396e-010 -7.73091 5.47488 -0.417314 6.07424e-011 4.69524e-010 1.50383e-010 -2.90554 0.965183 -0.102902 6.0732e-011 4.69524e-010 1.50382e-010 -10.2786 0.731801 -0.0259123 6.07466e-011 4.69525e-010 1.50373e-010 -2.22167 -0.733487 0.20892 -2.03217e-016 0 -3.88251e-019 4.85616 2.54597 1.6945 0.0499342 5.51199 0.192943 -0.459907 3.36312 -8.09207 2.03217e-016 0 3.88251e-019 3.49993 -14.49 -3.51719 -0.0764868 8.45057 -0.185159 1.20021 -3.69033 4.80188 
-183.336 83.9651 2.88577 -15.0257 -24.21 50.6471 3.52532 7.82106 3.77515 -2.63027 0.47317 1.28541 3.87119 4.2802 1.69017 -5.11705 -24.3849 1.31431 -0 0 0 -0 0 0 -2.63233e-013 -1.44567e-012 -1.14394e-014 37.6756 25.8431 -5.88166 -42.7232 -49.8814 37.1203 -0.0657946 -14.924 -2.09441 -4.83554e-010 -4.99375e-010 -6.91675e-010 -8.24932e-010 -8.69858e-010 -1.20423e-009 -4.83549e-010 -4.99376e-010 -6.91693e-010 7.73091 5.47488 0.417314 -4.83554e-010 -4.99377e-010 -6.91678e-010 2.90554 0.965183 0.102902 -4.8355e-010 -4.99377e-010 -6.91674e-010 10.2786 0.731801 0.0259123 -4.83559e-010 -4.99376e-010 -6.91662e-010 2.22167 -0.733487 -0.20892 -2.63247e-013 -1.44567e-012 -1.1719e-014 -53.2838 12.768 29.0999 35.4087 -40.8199 -37.7372 0.013674 -7.01848 0.985878 1.49087e-010 9.77203e-010 2.80734e-010 2.51034e-010 1.6881e-009 4.89791e-010 1.49077e-010 9.7721e-010 2.80744e-010 -7.73091 5.47488 -0.417314 1.49087e-010 9.77204e-010 2.80734e-010 -2.90554 0.965183 -0.102902 1.49074e-010 9.77204e-010 2.80733e-010 -10.2786 0.731801 -0.0259123 1.49088e-010 9.77204e-010 2.80725e-010 -2.22167 -0.733487 0.20892 -2.03217e-016 0 -3.88251e-019 8.62969 10.0408 3.71432 0.0815981 8.28524 0.409664 0.0360096 4.78478 -16.8251 2.03217e-016 0 3.88251e-019 5.55362 -27.1154 -7.99204 -0.0743915 18.5507 -0.478336 3.41023 -11.3286 10.3178 
-177.725 84.6095 2.87492 -11.5584 -19.1131 74.3084 4.4938 11.3943 5.50029 -3.90966 0.697475 1.84393 5.5491 6.21354 2.46851 -6.90822 -35.4794 2.17241 -0 0 0 -0 0 0 -3.72892e-013 -2.0547e-012 -1.68637e-014 57.4402 37.5375 -9.99254 -30.8381 -55.6067 77.6036 -0.492552 -21.8867 -3.19882 -7.13405e-010 -7.27713e-010 -1.04794e-009 -1.21581e-009 -1.26764e-009 -1.82461e-009 -7.13401e-010 -7.27716e-010 -1.04796e-009 7.73091 5.47488 0.417314 -7.13405e-010 -7.27717e-010 -1.04795e-009 2.90554 0.965183 0.102902 -7.134e-010 -7.27717e-010 -1.04794e-009 10.2786 0.731801 0.0259123 -7.13409e-010 -7.27715e-010 -1.04793e-009 2.22167 -0.733487 -0.20892 -3.72915e-013 -2.0547e-012 -1.70912e-014 -81.7135 15.8295 43.0432 31.0873 -45.5323 -67.2949 0.102472 -10.2645 1.45448 2.29962e-010 1.40822e-009 4.51167e-010 3.87389e-010 2.43277e-009 7.86483e-010 2.29951e-010 1.40823e-009 4.51175e-010 -7.73091 5.47488 -0.417314 2.29963e-010 1.40823e-009 4.51167e-010 -2.90554 0.965183 -0.102902 2.29948e-010 1.40823e-009 4.51166e-010 -10.2786 0.731801 -0.0259123 2.2996e-010 1.40822e-009 4.51158e-010 -2.22167 -0.733487 0.20892 -2.03217e-016 0 -3.88251e-019 11.5218 16.3939 5.44604 0.0871186 11.6566 0.611242 0.719705 5.68469 -24.5503 2.03217e-016 0 3.88251e-019 5.17583 -37.9758 -13.0617 0.0337559 27.6818 -0.769501 6.52466 -17.6724 15.3675 
